<svg width="121" height="40" viewBox="0 0 121 40" fill="none" xmlns="http://www.w3.org/2000/svg">
<path d="M111.364 0.00013H9.64112C9.27033 0.00013 8.90399 0.00013 8.53417 0.00213C8.22461 0.00413 7.9175 0.00994 7.60496 0.01483C6.92598 0.0227318 6.2486 0.0818063 5.57869 0.19154C4.90973 0.303663 4.26172 0.515046 3.65659 0.81854C3.0522 1.1246 2.49995 1.5223 2.01987 1.9972C1.53728 2.47077 1.13499 3.01815 0.828497 3.61829C0.521154 4.21724 0.308041 4.85907 0.19652 5.52161C0.0839377 6.18331 0.0233562 6.85265 0.0153191 7.52361C0.00593553 7.83021 0.00494459 8.13783 0 8.44447V31.5587C0.00494459 31.8692 0.00593553 32.17 0.0153191 32.4806C0.0233587 33.1516 0.0839401 33.8209 0.19652 34.4825C0.307734 35.1455 0.520859 35.7877 0.828497 36.3868C1.13486 36.985 1.53719 37.5302 2.01987 38.0011C2.49813 38.4781 3.05073 38.8761 3.65659 39.1798C4.26172 39.4841 4.90966 39.6968 5.57869 39.8106C6.24871 39.9195 6.92603 39.9786 7.60496 39.9874C7.9175 39.9942 8.22461 39.9981 8.53417 39.9981C8.90398 40.0001 9.27035 40.0001 9.64112 40.0001H111.364C111.728 40.0001 112.097 40.0001 112.46 39.9981C112.769 39.9981 113.085 39.9942 113.393 39.9874C114.07 39.979 114.746 39.9199 115.415 39.8106C116.086 39.696 116.736 39.4834 117.344 39.1798C117.95 38.8759 118.502 38.478 118.98 38.0011C119.461 37.5283 119.864 36.9836 120.174 36.3868C120.48 35.7872 120.691 35.1451 120.8 34.4825C120.913 33.8208 120.976 33.1516 120.988 32.4806C120.992 32.17 120.992 31.8692 120.992 31.5587C121 31.1954 121 30.8341 121 30.4649V9.53626C121 9.17005 121 8.80677 120.992 8.44447C120.992 8.13783 120.992 7.83021 120.988 7.52357C120.976 6.85255 120.913 6.18337 120.8 5.52157C120.691 4.85941 120.48 4.21763 120.174 3.61825C119.55 2.41533 118.561 1.43616 117.344 0.81845C116.736 0.515697 116.086 0.30437 115.415 0.19145C114.746 0.0812328 114.07 0.0221378 113.393 0.01469C113.085 0.00981 112.769 0.00395 112.46 0.002C112.097 0 111.728 0 111.364 0V0.00013Z" fill="#323232"/>
<path d="M8.53891 39.125C8.23082 39.125 7.93018 39.1211 7.62452 39.1143C6.99131 39.1061 6.35958 39.0516 5.73451 38.9512C5.15167 38.8519 4.58705 38.6673 4.05928 38.4033C3.53634 38.1415 3.05939 37.7983 2.64668 37.3867C2.228 36.98 1.87943 36.5082 1.61478 35.9902C1.34721 35.4688 1.16204 34.9099 1.06572 34.333C0.961691 33.7131 0.90541 33.0863 0.897357 32.458C0.890946 32.2471 0.882553 31.5449 0.882553 31.5449V8.44434C0.882553 8.44434 0.891492 7.75293 0.897407 7.5498C0.905118 6.92248 0.961072 6.29665 1.06479 5.67773C1.16129 5.09925 1.3466 4.53875 1.61431 4.01563C1.87799 3.49794 2.22463 3.02586 2.64079 2.61768C3.05648 2.20562 3.53496 1.8606 4.05878 1.59521C4.58534 1.33209 5.14889 1.14873 5.73056 1.05127C6.35768 0.949836 6.9916 0.894996 7.62701 0.88721L8.5394 0.875H112.455L113.379 0.8877C114.008 0.895099 114.636 0.94945 115.258 1.05029C115.845 1.14898 116.415 1.33362 116.947 1.59814C117.997 2.13299 118.851 2.97916 119.389 4.01807C119.653 4.53758 119.835 5.09351 119.93 5.66699C120.035 6.29099 120.094 6.92174 120.106 7.5542C120.109 7.8374 120.109 8.1416 120.109 8.44434C120.117 8.81934 120.117 9.17627 120.117 9.53613V30.4648C120.117 30.8281 120.117 31.1826 120.109 31.54C120.109 31.8652 120.109 32.1631 120.105 32.4697C120.093 33.0909 120.036 33.7104 119.932 34.3232C119.838 34.9043 119.654 35.4675 119.386 35.9932C119.12 36.5056 118.773 36.9733 118.359 37.3789C117.946 37.7927 117.468 38.1379 116.944 38.4014C116.413 38.6674 115.845 38.8527 115.258 38.9512C114.633 39.0522 114.001 39.1067 113.368 39.1143C113.071 39.1211 112.761 39.125 112.46 39.125L111.364 39.127L8.53891 39.125Z" fill="white"/>
<path fill-rule="evenodd" clip-rule="evenodd" d="M22.04 31C16.8357 31 14.2335 31 12.6168 29.3832C11 27.7665 11 25.1642 11 19.9599L11 19.0399C11 13.8356 11 11.2334 12.6168 9.61668C14.2335 8 16.8357 8 22.04 8L22.96 8C28.1643 8 30.7665 8 32.3832 9.61668C34 11.2334 34 13.8356 34 19.0399V19.9599C34 25.1642 34 27.7665 32.3832 29.3832C30.7665 31 28.1643 31 22.96 31H22.04Z" fill="#0077FF"/>
<path d="M24.2998 22.1744C23.6801 22.0196 23.2456 21.4653 23.2456 20.8295V13.3393C23.2456 12.6172 23.928 12.0876 24.6318 12.2634L29.0891 13.3769C29.7088 13.5317 30.1434 14.086 30.1434 14.7218V22.2119C30.1434 22.934 29.461 23.4636 28.7571 23.2878L24.2998 22.1744Z" fill="white"/>
<path d="M15.9106 25.6236C15.2909 25.4688 14.8564 24.9145 14.8564 24.2787L14.8565 16.7886C14.8565 16.0664 15.5388 15.5368 16.2427 15.7127L20.7 16.8261C21.3197 16.9809 21.7541 17.5352 21.7541 18.171V25.6611C21.7541 26.3832 21.0718 26.9128 20.368 26.737L15.9106 25.6236Z" fill="white"/>
<path d="M20.1055 23.899C19.4858 23.7442 19.0513 23.1898 19.0513 22.5541V15.064C19.0513 14.3418 19.7337 13.8122 20.4375 13.988L24.8948 15.1015C25.5145 15.2563 25.949 15.8106 25.949 16.4464V23.9365C25.949 24.6587 25.2666 25.1883 24.5628 25.0124L20.1055 23.899Z" fill="white"/>
<path d="M23.0226 24.6298C22.8274 24.5801 22.6885 24.4075 22.6816 24.2062L22.4877 18.486C22.4316 17.729 21.8697 17.1269 21.2824 16.9496C21.2494 16.9396 21.2142 16.953 21.1947 16.9814C21.1749 17.0102 21.1825 17.0501 21.2102 17.0715C21.3552 17.1838 21.7543 17.5501 21.7543 18.182L21.7532 24.3081L23.0226 24.6298Z" fill="#0077FF"/>
<path d="M27.2184 22.903C27.0234 22.8542 26.8843 22.6822 26.8775 22.4812L26.6836 16.7615C26.6274 16.0044 26.0655 15.4023 25.4782 15.225C25.4452 15.215 25.41 15.2284 25.3905 15.2568C25.3707 15.2856 25.3783 15.3255 25.406 15.347C25.551 15.4592 25.9502 15.8255 25.9502 16.4574L25.949 22.5857L27.2184 22.903Z" fill="#0077FF"/>
<path d="M47.2401 25.3511C48.9818 24.907 50.1263 23.5749 50.1263 21.8316C50.1263 19.6771 48.4012 18.1641 45.9793 18.1641H41.6665V29.7586H43.657V25.4991H45.067L48.1524 29.7586H50.4913L47.2401 25.3511ZM45.9793 19.9732C47.2235 19.9732 48.086 20.7297 48.086 21.8316C48.086 22.9335 47.2235 23.69 45.9793 23.69H43.657V19.9732H45.9793Z" fill="#323232"/>
<path d="M54.9715 29.9235C56.0165 29.9235 56.9786 29.3808 57.526 28.4762L57.9076 29.759H59.3341V21.207H57.4265V26.1573C57.4265 27.3744 56.6137 28.2295 55.5023 28.2295C54.4075 28.2295 53.6444 27.3744 53.6444 26.1573V21.207H51.7368V26.3711C51.7368 28.4269 53.1302 29.9235 54.9715 29.9235Z" fill="#323232"/>
<path d="M65.4216 29.9235C67.6279 29.9235 69.4526 28.6736 69.4526 26.6014C69.4526 24.2825 67.5447 23.6082 65.9024 23.049C64.6253 22.6214 63.514 22.2267 63.514 21.1905C63.514 20.286 64.3599 19.8091 65.3552 19.8091C66.4002 19.8091 67.1466 20.3518 67.5617 21.2728L69.4526 20.9603C68.8551 19.1512 67.3459 18 65.2889 18C63.1656 18 61.4737 19.217 61.4737 21.2892C61.4737 23.6246 63.3812 24.266 65.0234 24.8087C66.2841 25.2199 67.4122 25.6146 67.4122 26.6672C67.4122 27.5882 66.5661 28.1144 65.4382 28.1144C64.1443 28.1144 63.4476 27.5059 62.8338 26.404L60.9097 26.7329C61.4737 28.69 63.2651 29.9235 65.4216 29.9235Z" fill="#323232"/>
<path d="M74.6419 28.1146C73.9952 28.1146 73.6798 27.8021 73.6798 27.1608V22.8518H76.2509V21.2072H73.6798V18.7402H72.2532L71.7724 21.2072H70.3623V22.8518H71.7724V27.1608C71.7724 28.8382 72.751 29.7592 74.6419 29.7592H76.2509L76.4168 28.1146H74.6419Z" fill="#323232"/>
<path d="M81.8688 29.9239C84.5724 29.9239 86.4798 28.082 86.4798 25.4834C86.4798 22.8849 84.5724 21.043 81.8688 21.043C79.1647 21.043 77.2573 22.8849 77.2573 25.4834C77.2573 28.082 79.1647 29.9239 81.8688 29.9239ZM81.8688 28.1971C80.3092 28.1971 79.2479 27.0951 79.2479 25.4834C79.2479 23.8717 80.3092 22.7698 81.8688 22.7698C83.4279 22.7698 84.4897 23.8717 84.4897 25.4834C84.4897 27.0951 83.4279 28.1971 81.8688 28.1971Z" fill="#323232"/>
<path d="M90.0455 29.759V24.71C90.0455 23.6246 90.5767 23.0161 91.7377 23.0161H92.8324L92.6665 21.207H92.3017C91.2897 21.207 90.5099 21.4866 89.9295 22.4405L89.5647 21.207H88.1382V29.759H90.0455Z" fill="#323232"/>
<path d="M102.219 25.3848C102.219 22.9178 100.361 21.043 97.7402 21.043C95.1192 21.043 93.2617 22.9014 93.2617 25.4834C93.2617 28.0655 95.1192 29.9239 97.7402 29.9239C99.532 29.9239 101.224 29.0851 101.871 27.457L100.079 27.161C99.6645 27.7694 98.8682 28.1971 97.8562 28.1971C96.3968 28.1971 95.4347 27.3089 95.2523 25.9933H102.186C102.203 25.8123 102.219 25.615 102.219 25.3848ZM97.7402 22.6876C98.9345 22.6876 99.8304 23.4441 100.145 24.5131H95.3684C95.6833 23.4112 96.5792 22.6876 97.7402 22.6876Z" fill="#323232"/>
<path d="M43.9375 14.1055C43.1432 14.1055 42.5143 13.8424 42.0508 13.3164C41.5846 12.7904 41.3516 12.0781 41.3516 11.1797C41.3516 10.2891 41.5859 9.57943 42.0547 9.05078C42.5208 8.52214 43.1484 8.25781 43.9375 8.25781C44.5573 8.25781 45.0859 8.42969 45.5234 8.77344C45.9583 9.11979 46.2227 9.57422 46.3164 10.1367H45.4375C45.3464 9.80339 45.1654 9.53646 44.8945 9.33594C44.6211 9.13542 44.3021 9.03516 43.9375 9.03516C43.4245 9.03516 43.0156 9.22917 42.7109 9.61719C42.4036 10.0078 42.25 10.5286 42.25 11.1797C42.25 11.8385 42.4023 12.3607 42.707 12.7461C43.0117 13.1341 43.4232 13.3281 43.9414 13.3281C44.3164 13.3281 44.6354 13.2409 44.8984 13.0664C45.1589 12.8919 45.3385 12.6471 45.4375 12.332H46.3164C46.194 12.8919 45.9258 13.3268 45.5117 13.6367C45.0951 13.9492 44.5703 14.1055 43.9375 14.1055ZM50.7422 14H49.6836L47.9727 12.0273H47.9414V14H47.1016V9.75781H47.9414V11.582H47.9727L49.6641 9.75781H50.6719L48.7812 11.7539L50.7422 14ZM52.668 13.3672C52.9831 13.3672 53.2461 13.2773 53.457 13.0977C53.668 12.9154 53.7734 12.6849 53.7734 12.4062V12.0742L52.7422 12.1445C52.1562 12.181 51.8633 12.3893 51.8633 12.7695C51.8633 12.9518 51.9362 13.0964 52.082 13.2031C52.2279 13.3125 52.4232 13.3672 52.668 13.3672ZM52.4414 14.043C52.0169 14.043 51.6719 13.9284 51.4062 13.6992C51.1406 13.4674 51.0078 13.1628 51.0078 12.7852C51.0078 12.4154 51.1471 12.125 51.4258 11.9141C51.7018 11.7031 52.1029 11.5807 52.6289 11.5469L53.7734 11.4805V11.1523C53.7734 10.9102 53.6953 10.724 53.5391 10.5938C53.3854 10.4661 53.1667 10.4023 52.8828 10.4023C52.6536 10.4023 52.4596 10.457 52.3008 10.5664C52.1445 10.6758 52.0482 10.8229 52.0117 11.0078H51.2188C51.2318 10.6328 51.3971 10.3216 51.7148 10.0742C52.0326 9.82682 52.4297 9.70312 52.9062 9.70312C53.4245 9.70312 53.8372 9.82943 54.1445 10.082C54.4544 10.3346 54.6094 10.6706 54.6094 11.0898V14H53.8008V13.293H53.7812C53.6641 13.5221 53.4844 13.7044 53.2422 13.8398C53 13.9753 52.7331 14.043 52.4414 14.043ZM58.0547 14V12.0977H58.0234C57.7292 12.3971 57.3451 12.5469 56.8711 12.5469C56.4154 12.5469 56.056 12.4062 55.793 12.125C55.5326 11.8516 55.4023 11.4805 55.4023 11.0117V9.75781H56.2383V10.9531C56.2383 11.2214 56.3086 11.4336 56.4492 11.5898C56.5898 11.7461 56.7839 11.8242 57.0312 11.8242C57.4922 11.8242 57.8333 11.6576 58.0547 11.3242V9.75781H58.8945V14H58.0547ZM61.3164 13.3672C61.6315 13.3672 61.8945 13.2773 62.1055 13.0977C62.3164 12.9154 62.4219 12.6849 62.4219 12.4062V12.0742L61.3906 12.1445C60.8047 12.181 60.5117 12.3893 60.5117 12.7695C60.5117 12.9518 60.5846 13.0964 60.7305 13.2031C60.8763 13.3125 61.0716 13.3672 61.3164 13.3672ZM61.0898 14.043C60.6654 14.043 60.3203 13.9284 60.0547 13.6992C59.7891 13.4674 59.6562 13.1628 59.6562 12.7852C59.6562 12.4154 59.7956 12.125 60.0742 11.9141C60.3503 11.7031 60.7513 11.5807 61.2773 11.5469L62.4219 11.4805V11.1523C62.4219 10.9102 62.3438 10.724 62.1875 10.5938C62.0339 10.4661 61.8151 10.4023 61.5312 10.4023C61.3021 10.4023 61.1081 10.457 60.9492 10.5664C60.793 10.6758 60.6966 10.8229 60.6602 11.0078H59.8672C59.8802 10.6328 60.0456 10.3216 60.3633 10.0742C60.681 9.82682 61.0781 9.70312 61.5547 9.70312C62.0729 9.70312 62.4857 9.82943 62.793 10.082C63.1029 10.3346 63.2578 10.6706 63.2578 11.0898V14H62.4492V13.293H62.4297C62.3125 13.5221 62.1328 13.7044 61.8906 13.8398C61.6484 13.9753 61.3815 14.043 61.0898 14.043ZM67.293 10.4297H65.9531V14H65.1172V10.4297H63.7773V9.75781H67.293V10.4297ZM68.7695 11.7383V13.332H69.5117C69.7669 13.332 69.9714 13.2591 70.125 13.1133C70.276 12.9674 70.3516 12.7747 70.3516 12.5352C70.3516 12.293 70.2747 12.099 70.1211 11.9531C69.9701 11.8099 69.7669 11.7383 69.5117 11.7383H68.7695ZM67.9297 9.75781H68.7695V11.0742H69.5781C70.0703 11.0742 70.4622 11.2057 70.7539 11.4688C71.0456 11.7318 71.1914 12.0872 71.1914 12.5352C71.1914 12.9831 71.0456 13.3398 70.7539 13.6055C70.4622 13.8685 70.0703 14 69.5781 14H67.9297V9.75781ZM74.5977 10.3789V11.5039H75.4453C75.9427 11.5039 76.1914 11.3151 76.1914 10.9375C76.1914 10.5651 75.9727 10.3789 75.5352 10.3789H74.5977ZM74.5977 12.1055V13.375H75.6094C76.1172 13.375 76.3711 13.1654 76.3711 12.7461C76.3711 12.319 76.082 12.1055 75.5039 12.1055H74.5977ZM73.7656 9.75781H75.6992C76.1081 9.75781 76.431 9.85417 76.668 10.0469C76.9023 10.2396 77.0195 10.5026 77.0195 10.8359C77.0195 11.0573 76.9505 11.2552 76.8125 11.4297C76.6745 11.6068 76.5039 11.7148 76.3008 11.7539V11.7852C76.5716 11.8216 76.7904 11.9297 76.957 12.1094C77.1237 12.2917 77.207 12.5143 77.207 12.7773C77.207 13.1523 77.0742 13.4492 76.8086 13.668C76.5404 13.8893 76.1771 14 75.7188 14H73.7656V9.75781Z" fill="#323232"/>
</svg>
