<svg width="121" height="40" viewBox="0 0 121 40" fill="none" xmlns="http://www.w3.org/2000/svg">
<path d="M111.364 0.00013H9.64112C9.27033 0.00013 8.90399 0.00013 8.53417 0.00213C8.22461 0.00413 7.9175 0.00994 7.60496 0.01483C6.92598 0.0227318 6.2486 0.0818063 5.57869 0.19154C4.90973 0.303663 4.26172 0.515046 3.65659 0.81854C3.0522 1.1246 2.49995 1.5223 2.01987 1.9972C1.53728 2.47077 1.13499 3.01815 0.828497 3.61829C0.521154 4.21724 0.308041 4.85907 0.19652 5.52161C0.0839377 6.18331 0.0233562 6.85265 0.0153191 7.52361C0.00593553 7.83021 0.00494459 8.13783 0 8.44447V31.5587C0.00494459 31.8692 0.00593553 32.17 0.0153191 32.4806C0.0233587 33.1516 0.0839401 33.8209 0.19652 34.4825C0.307734 35.1455 0.520859 35.7877 0.828497 36.3868C1.13486 36.985 1.53719 37.5302 2.01987 38.0011C2.49813 38.4781 3.05073 38.8761 3.65659 39.1798C4.26172 39.4841 4.90966 39.6968 5.57869 39.8106C6.24871 39.9195 6.92603 39.9786 7.60496 39.9874C7.9175 39.9942 8.22461 39.9981 8.53417 39.9981C8.90398 40.0001 9.27035 40.0001 9.64112 40.0001H111.364C111.728 40.0001 112.097 40.0001 112.46 39.9981C112.769 39.9981 113.085 39.9942 113.393 39.9874C114.07 39.979 114.746 39.9199 115.415 39.8106C116.086 39.696 116.736 39.4834 117.344 39.1798C117.95 38.8759 118.502 38.478 118.98 38.0011C119.461 37.5283 119.864 36.9836 120.174 36.3868C120.48 35.7872 120.691 35.1451 120.8 34.4825C120.913 33.8208 120.976 33.1516 120.988 32.4806C120.992 32.17 120.992 31.8692 120.992 31.5587C121 31.1954 121 30.8341 121 30.4649V9.53626C121 9.17005 121 8.80677 120.992 8.44447C120.992 8.13783 120.992 7.83021 120.988 7.52357C120.976 6.85255 120.913 6.18337 120.8 5.52157C120.691 4.85941 120.48 4.21763 120.174 3.61825C119.55 2.41533 118.561 1.43616 117.344 0.81845C116.736 0.515697 116.086 0.30437 115.415 0.19145C114.746 0.0812328 114.07 0.0221378 113.393 0.01469C113.085 0.00981 112.769 0.00395 112.46 0.002C112.097 0 111.728 0 111.364 0V0.00013Z" fill="#323232"/>
<path d="M8.5389 39.125C8.23082 39.125 7.93018 39.1211 7.62452 39.1143C6.99131 39.1061 6.35958 39.0516 5.73451 38.9512C5.15167 38.8519 4.58705 38.6673 4.05928 38.4033C3.53634 38.1415 3.05939 37.7983 2.64668 37.3867C2.228 36.98 1.87943 36.5082 1.61478 35.9902C1.34721 35.4688 1.16204 34.9099 1.06572 34.333C0.961691 33.7131 0.90541 33.0863 0.897357 32.458C0.890946 32.2471 0.882553 31.5449 0.882553 31.5449V8.44434C0.882553 8.44434 0.891492 7.75293 0.897407 7.5498C0.905118 6.92248 0.961072 6.29665 1.06479 5.67773C1.16129 5.09925 1.3466 4.53875 1.61431 4.01563C1.87799 3.49794 2.22463 3.02586 2.64079 2.61768C3.05648 2.20562 3.53496 1.8606 4.05878 1.59521C4.58534 1.33209 5.14889 1.14873 5.73056 1.05127C6.35768 0.949836 6.9916 0.894996 7.62701 0.88721L8.5394 0.875H112.455L113.379 0.8877C114.008 0.895099 114.636 0.94945 115.258 1.05029C115.845 1.14898 116.415 1.33362 116.947 1.59814C117.997 2.13299 118.851 2.97916 119.389 4.01807C119.653 4.53758 119.835 5.09351 119.93 5.66699C120.035 6.29099 120.094 6.92174 120.106 7.5542C120.109 7.8374 120.109 8.1416 120.109 8.44434C120.117 8.81934 120.117 9.17627 120.117 9.53613V30.4648C120.117 30.8281 120.117 31.1826 120.109 31.54C120.109 31.8652 120.109 32.1631 120.105 32.4697C120.093 33.0909 120.036 33.7104 119.932 34.3232C119.838 34.9043 119.654 35.4675 119.386 35.9932C119.12 36.5056 118.773 36.9733 118.359 37.3789C117.946 37.7927 117.468 38.1379 116.944 38.4014C116.413 38.6674 115.845 38.8527 115.258 38.9512C114.633 39.0522 114.001 39.1067 113.368 39.1143C113.071 39.1211 112.761 39.125 112.46 39.125L111.364 39.127L8.5389 39.125Z" fill="white"/>
<path d="M25.2758 19.8907C25.2871 19.0227 25.5202 18.1717 25.9535 17.4168C26.3867 16.6618 27.006 16.0276 27.7537 15.573C27.2787 14.9021 26.6521 14.3499 25.9236 13.9604C25.1951 13.5709 24.3847 13.3548 23.557 13.3292C21.7913 13.1459 20.0795 14.3741 19.1797 14.3741C18.2625 14.3741 16.8771 13.3474 15.3853 13.3777C14.4204 13.4086 13.48 13.6861 12.6557 14.1832C11.8315 14.6803 11.1515 15.3801 10.682 16.2144C8.64845 19.6964 10.1653 24.8138 12.1133 27.6284C13.088 29.0067 14.227 30.5462 15.7175 30.4916C17.176 30.4318 17.7207 29.5718 19.4812 29.5718C21.2254 29.5718 21.7365 30.4916 23.2572 30.4569C24.8223 30.4318 25.8083 29.0725 26.7488 27.6813C27.449 26.6992 27.9879 25.6139 28.3454 24.4654C27.4361 24.085 26.6602 23.4484 26.1143 22.6349C25.5685 21.8214 25.2768 20.867 25.2758 19.8907Z" fill="#323232"/>
<path d="M22.4028 11.4775C23.2559 10.4645 23.6762 9.16233 23.5745 7.84766C22.271 7.98307 21.067 8.59927 20.2024 9.57348C19.7796 10.0494 19.4558 10.6031 19.2495 11.2029C19.0432 11.8026 18.9584 12.4368 19 13.069C19.6519 13.0756 20.2969 12.9358 20.8863 12.6602C21.4757 12.3845 21.9942 11.9802 22.4028 11.4775Z" fill="#323232"/>
<path d="M42.7741 27.1397H37.9878L36.8384 30.4961H34.8111L39.3446 18.0781H41.4509L45.9843 30.4961H43.9225L42.7741 27.1397ZM38.4835 25.5908H42.2774L40.4071 20.1436H40.3548L38.4835 25.5908Z" fill="#323232"/>
<path d="M55.775 25.9695C55.775 28.7829 54.2523 30.5905 51.9545 30.5905C51.3724 30.6207 50.7935 30.488 50.2841 30.2079C49.7747 29.9278 49.3553 29.5114 49.0741 29.0065H49.0306V33.4909H47.1514V21.4421H48.9704V22.948H49.0049C49.2991 22.4455 49.7256 22.0313 50.2389 21.7495C50.7522 21.4676 51.3331 21.3287 51.9199 21.3474C54.2434 21.3474 55.775 23.1638 55.775 25.9695ZM53.8435 25.9695C53.8435 24.1365 52.8857 22.9314 51.4242 22.9314C49.9885 22.9314 49.0227 24.1618 49.0227 25.9695C49.0227 27.7937 49.9885 29.0154 51.4242 29.0154C52.8857 29.0154 53.8435 27.8191 53.8435 25.9695H53.8435Z" fill="#323232"/>
<path d="M65.8516 25.9695C65.8516 28.7829 64.3284 30.5905 62.0306 30.5905C61.4485 30.6207 60.8696 30.488 60.3602 30.2079C59.8508 29.9278 59.4314 29.5114 59.1502 29.0065H59.1067V33.4909H57.2275V21.4421H59.0464V22.948H59.081C59.3752 22.4455 59.8016 22.0313 60.3149 21.7495C60.8282 21.4676 61.4092 21.3287 61.996 21.3474C64.3195 21.3474 65.8516 23.1638 65.8516 25.9695ZM63.9196 25.9695C63.9196 24.1365 62.9618 22.9314 61.5003 22.9314C60.0646 22.9314 59.0988 24.1618 59.0988 25.9695C59.0988 27.7937 60.0646 29.0154 61.5003 29.0154C62.9618 29.0154 63.9196 27.8191 63.9196 25.9695Z" fill="#323232"/>
<path d="M72.5101 27.0362C72.6493 28.2676 73.859 29.0762 75.512 29.0762C77.0959 29.0762 78.2354 28.2676 78.2354 27.1572C78.2354 26.1934 77.5481 25.6162 75.9208 25.2207L74.2934 24.833C71.9877 24.2822 70.9173 23.2158 70.9173 21.4854C70.9173 19.3428 72.8053 17.8711 75.4853 17.8711C78.1396 17.8711 79.9585 19.3428 80.0198 21.4854H78.1228C78.0093 20.2461 76.9734 19.4981 75.4596 19.4981C73.9458 19.4981 72.91 20.2549 72.91 21.3565C72.91 22.2344 73.5716 22.751 75.19 23.1465L76.5735 23.4824C79.1498 24.0849 80.2192 25.1084 80.2192 26.9248C80.2192 29.248 78.3489 30.7031 75.3727 30.7031C72.588 30.7031 70.7079 29.2822 70.5864 27.0361L72.5101 27.0362Z" fill="#323232"/>
<path d="M84.2761 19.3008V21.4434H86.0166V22.915H84.2761V27.9063C84.2761 28.6816 84.6246 29.043 85.3897 29.043C85.5963 29.0394 85.8026 29.0251 86.0077 29V30.4629C85.6637 30.5264 85.3141 30.5552 84.9642 30.5488C83.1111 30.5488 82.3884 29.8603 82.3884 28.1045V22.915H81.0576V21.4434H82.3884V19.3008H84.2761Z" fill="#323232"/>
<path d="M87.0248 25.9707C87.0248 23.1221 88.7213 21.332 91.3667 21.332C94.021 21.332 95.7096 23.122 95.7096 25.9707C95.7096 28.8272 94.0299 30.6094 91.3667 30.6094C88.7045 30.6094 87.0248 28.8271 87.0248 25.9707ZM93.7949 25.9707C93.7949 24.0166 92.8894 22.8633 91.3667 22.8633C89.844 22.8633 88.9385 24.0254 88.9385 25.9707C88.9385 27.9326 89.844 29.0772 91.3667 29.0772C92.8894 29.0772 93.7949 27.9326 93.7949 25.9707H93.7949Z" fill="#323232"/>
<path d="M97.2589 21.442H99.0508V22.983H99.0943C99.2155 22.5017 99.5006 22.0764 99.9015 21.7785C100.302 21.4806 100.795 21.3284 101.296 21.3473C101.512 21.3465 101.728 21.3698 101.94 21.4166V23.1549C101.666 23.0723 101.381 23.0343 101.095 23.0426C100.822 23.0316 100.55 23.0792 100.298 23.1821C100.045 23.285 99.8182 23.4408 99.6322 23.6386C99.4462 23.8365 99.3057 24.0719 99.2203 24.3286C99.135 24.5852 99.1068 24.8571 99.1377 25.1256V30.4957H97.2589L97.2589 21.442Z" fill="#323232"/>
<path d="M110.604 27.8379C110.352 29.4814 108.733 30.6094 106.663 30.6094C103.999 30.6094 102.346 28.8447 102.346 26.0137C102.346 23.1738 104.008 21.332 106.584 21.332C109.116 21.332 110.709 23.0527 110.709 25.7979V26.4346H104.243V26.5469C104.213 26.8801 104.256 27.2157 104.367 27.5316C104.478 27.8474 104.656 28.1362 104.889 28.3788C105.122 28.6213 105.405 28.8121 105.718 28.9384C106.031 29.0647 106.368 29.1236 106.706 29.1113C107.15 29.1525 107.596 29.0508 107.977 28.8213C108.358 28.5919 108.653 28.247 108.82 27.8379L110.604 27.8379ZM104.252 25.1357H108.829C108.846 24.8361 108.8 24.5363 108.694 24.2551C108.588 23.9739 108.425 23.7174 108.214 23.5016C108.003 23.2858 107.749 23.1155 107.469 23.0013C107.188 22.8871 106.887 22.8314 106.584 22.8379C106.278 22.8361 105.974 22.8942 105.691 23.009C105.408 23.1237 105.15 23.2928 104.934 23.5064C104.717 23.72 104.545 23.974 104.428 24.2537C104.311 24.5333 104.251 24.8331 104.252 25.1358V25.1357Z" fill="#323232"/>
<path d="M37.9375 14.1055C37.1432 14.1055 36.5143 13.8424 36.0508 13.3164C35.5846 12.7904 35.3516 12.0781 35.3516 11.1797C35.3516 10.2891 35.5859 9.57943 36.0547 9.05078C36.5208 8.52214 37.1484 8.25781 37.9375 8.25781C38.5573 8.25781 39.0859 8.42969 39.5234 8.77344C39.9583 9.11979 40.2227 9.57422 40.3164 10.1367H39.4375C39.3464 9.80339 39.1654 9.53646 38.8945 9.33594C38.6211 9.13542 38.3021 9.03516 37.9375 9.03516C37.4245 9.03516 37.0156 9.22917 36.7109 9.61719C36.4036 10.0078 36.25 10.5286 36.25 11.1797C36.25 11.8385 36.4023 12.3607 36.707 12.7461C37.0117 13.1341 37.4232 13.3281 37.9414 13.3281C38.3164 13.3281 38.6354 13.2409 38.8984 13.0664C39.1589 12.8919 39.3385 12.6471 39.4375 12.332H40.3164C40.194 12.8919 39.9258 13.3268 39.5117 13.6367C39.0951 13.9492 38.5703 14.1055 37.9375 14.1055ZM44.7422 14H43.6836L41.9727 12.0273H41.9414V14H41.1016V9.75781H41.9414V11.582H41.9727L43.6641 9.75781H44.6719L42.7812 11.7539L44.7422 14ZM46.668 13.3672C46.9831 13.3672 47.2461 13.2773 47.457 13.0977C47.668 12.9154 47.7734 12.6849 47.7734 12.4062V12.0742L46.7422 12.1445C46.1562 12.181 45.8633 12.3893 45.8633 12.7695C45.8633 12.9518 45.9362 13.0964 46.082 13.2031C46.2279 13.3125 46.4232 13.3672 46.668 13.3672ZM46.4414 14.043C46.0169 14.043 45.6719 13.9284 45.4062 13.6992C45.1406 13.4674 45.0078 13.1628 45.0078 12.7852C45.0078 12.4154 45.1471 12.125 45.4258 11.9141C45.7018 11.7031 46.1029 11.5807 46.6289 11.5469L47.7734 11.4805V11.1523C47.7734 10.9102 47.6953 10.724 47.5391 10.5938C47.3854 10.4661 47.1667 10.4023 46.8828 10.4023C46.6536 10.4023 46.4596 10.457 46.3008 10.5664C46.1445 10.6758 46.0482 10.8229 46.0117 11.0078H45.2188C45.2318 10.6328 45.3971 10.3216 45.7148 10.0742C46.0326 9.82682 46.4297 9.70312 46.9062 9.70312C47.4245 9.70312 47.8372 9.82943 48.1445 10.082C48.4544 10.3346 48.6094 10.6706 48.6094 11.0898V14H47.8008V13.293H47.7812C47.6641 13.5221 47.4844 13.7044 47.2422 13.8398C47 13.9753 46.7331 14.043 46.4414 14.043ZM52.0547 14V12.0977H52.0234C51.7292 12.3971 51.3451 12.5469 50.8711 12.5469C50.4154 12.5469 50.056 12.4062 49.793 12.125C49.5326 11.8516 49.4023 11.4805 49.4023 11.0117V9.75781H50.2383V10.9531C50.2383 11.2214 50.3086 11.4336 50.4492 11.5898C50.5898 11.7461 50.7839 11.8242 51.0312 11.8242C51.4922 11.8242 51.8333 11.6576 52.0547 11.3242V9.75781H52.8945V14H52.0547ZM55.3164 13.3672C55.6315 13.3672 55.8945 13.2773 56.1055 13.0977C56.3164 12.9154 56.4219 12.6849 56.4219 12.4062V12.0742L55.3906 12.1445C54.8047 12.181 54.5117 12.3893 54.5117 12.7695C54.5117 12.9518 54.5846 13.0964 54.7305 13.2031C54.8763 13.3125 55.0716 13.3672 55.3164 13.3672ZM55.0898 14.043C54.6654 14.043 54.3203 13.9284 54.0547 13.6992C53.7891 13.4674 53.6562 13.1628 53.6562 12.7852C53.6562 12.4154 53.7956 12.125 54.0742 11.9141C54.3503 11.7031 54.7513 11.5807 55.2773 11.5469L56.4219 11.4805V11.1523C56.4219 10.9102 56.3438 10.724 56.1875 10.5938C56.0339 10.4661 55.8151 10.4023 55.5312 10.4023C55.3021 10.4023 55.1081 10.457 54.9492 10.5664C54.793 10.6758 54.6966 10.8229 54.6602 11.0078H53.8672C53.8802 10.6328 54.0456 10.3216 54.3633 10.0742C54.681 9.82682 55.0781 9.70312 55.5547 9.70312C56.0729 9.70312 56.4857 9.82943 56.793 10.082C57.1029 10.3346 57.2578 10.6706 57.2578 11.0898V14H56.4492V13.293H56.4297C56.3125 13.5221 56.1328 13.7044 55.8906 13.8398C55.6484 13.9753 55.3815 14.043 55.0898 14.043ZM61.293 10.4297H59.9531V14H59.1172V10.4297H57.7773V9.75781H61.293V10.4297ZM62.7695 11.7383V13.332H63.5117C63.7669 13.332 63.9714 13.2591 64.125 13.1133C64.276 12.9674 64.3516 12.7747 64.3516 12.5352C64.3516 12.293 64.2747 12.099 64.1211 11.9531C63.9701 11.8099 63.7669 11.7383 63.5117 11.7383H62.7695ZM61.9297 9.75781H62.7695V11.0742H63.5781C64.0703 11.0742 64.4622 11.2057 64.7539 11.4688C65.0456 11.7318 65.1914 12.0872 65.1914 12.5352C65.1914 12.9831 65.0456 13.3398 64.7539 13.6055C64.4622 13.8685 64.0703 14 63.5781 14H61.9297V9.75781ZM68.5977 10.3789V11.5039H69.4453C69.9427 11.5039 70.1914 11.3151 70.1914 10.9375C70.1914 10.5651 69.9727 10.3789 69.5352 10.3789H68.5977ZM68.5977 12.1055V13.375H69.6094C70.1172 13.375 70.3711 13.1654 70.3711 12.7461C70.3711 12.319 70.082 12.1055 69.5039 12.1055H68.5977ZM67.7656 9.75781H69.6992C70.1081 9.75781 70.431 9.85417 70.668 10.0469C70.9023 10.2396 71.0195 10.5026 71.0195 10.8359C71.0195 11.0573 70.9505 11.2552 70.8125 11.4297C70.6745 11.6068 70.5039 11.7148 70.3008 11.7539V11.7852C70.5716 11.8216 70.7904 11.9297 70.957 12.1094C71.1237 12.2917 71.207 12.5143 71.207 12.7773C71.207 13.1523 71.0742 13.4492 70.8086 13.668C70.5404 13.8893 70.1771 14 69.7188 14H67.7656V9.75781Z" fill="#323232"/>
</svg>
